<svg xmlns="http://www.w3.org/2000/svg" width="320" height="85.1680120728327" viewBox="0 0 320 85.1680120728327"><defs id="SvgjsDefs2140"></defs><g id="SvgjsG2141" featurekey="symbolFeature-0" transform="matrix(1.0274324269877226,0,0,1.0274324269877226,-1.8493784420655945,-8.558627659059116)" fill="#000000"><title xmlns="http://www.w3.org/2000/svg">icons</title><g xmlns="http://www.w3.org/2000/svg" data-name="15. circle saturn"><path d="M88.47,49.8C88.19,65.87,78.32,80.58,63,86A38.48,38.48,0,0,1,17,30,38.85,38.85,0,0,1,57.82,12.12C75.7,15.82,88.16,31.77,88.47,49.8c0,1.93,3,1.93,3,0A42,42,0,0,0,64.41,10.91a41.48,41.48,0,0,0-50,60.19A41.89,41.89,0,0,0,57.29,90.62c19.79-3.48,33.84-21,34.19-40.83C91.5,47.87,88.5,47.87,88.47,49.8Z"></path><path d="M3.3,51.3H97.63a1.5,1.5,0,0,0,0-3H3.3a1.5,1.5,0,0,0,0,3h0Z"></path></g></g><g id="SvgjsG2142" featurekey="nameFeature-0" transform="matrix(2.839541798058734,0,0,2.839541798058734,110.51820197159591,-38.93666122467372)" fill="#000000"><path d="M19.276 28.125999999999998 l15.938 -10.625 l0 22.5 l-4.6954 0 l0 -13.726 l-11.242 7.4944 l-11.242 -7.4944 l0 13.726 l-4.6954 0 l0 -22.5 z M69.078 17.234 l4.6951 0 l0 22.815 l-4.6951 0 l0 -9.0599 l-22.484 0 l0 9.0599 l-4.6954 0 l0 -22.815 l4.6954 0 l0 9.0599 l22.484 0 l0 -9.0599 z"></path></g></svg>
